<svg width="200" height="200" viewBox="0 0 200 200" xmlns="http://www.w3.org/2000/svg">
  <!-- Background circle -->
  <circle cx="100" cy="100" r="90" fill="#f8fafc" stroke="#e2e8f0" stroke-width="2"/>
  
  <!-- Headphone band -->
  <path d="M 60 80 Q 100 40 140 80" fill="none" stroke="#1f2937" stroke-width="6" stroke-linecap="round"/>
  <path d="M 65 85 Q 100 50 135 85" fill="none" stroke="#374151" stroke-width="3" stroke-linecap="round"/>
  
  <!-- Left ear cup -->
  <ellipse cx="70" cy="110" rx="18" ry="25" fill="#1f2937"/>
  <ellipse cx="70" cy="110" rx="12" ry="18" fill="#374151"/>
  <circle cx="70" cy="110" r="8" fill="#6b7280"/>
  
  <!-- Right ear cup -->
  <ellipse cx="130" cy="110" rx="18" ry="25" fill="#1f2937"/>
  <ellipse cx="130" cy="110" rx="12" ry="18" fill="#374151"/>
  <circle cx="130" cy="110" r="8" fill="#6b7280"/>
  
  <!-- Connecting wires/joints -->
  <rect x="67" y="85" width="6" height="15" rx="3" fill="#374151"/>
  <rect x="127" y="85" width="6" height="15" rx="3" fill="#374151"/>
  
  <!-- Sound waves (decorative) -->
  <path d="M 45 95 Q 50 100 45 105" fill="none" stroke="#3b82f6" stroke-width="2" opacity="0.6"/>
  <path d="M 40 90 Q 48 100 40 110" fill="none" stroke="#3b82f6" stroke-width="2" opacity="0.4"/>
  <path d="M 155 95 Q 150 100 155 105" fill="none" stroke="#3b82f6" stroke-width="2" opacity="0.6"/>
  <path d="M 160 90 Q 152 100 160 110" fill="none" stroke="#3b82f6" stroke-width="2" opacity="0.4"/>
  
  <!-- Brand/logo placeholder -->
  <circle cx="100" cy="60" r="4" fill="#ef4444"/>
  
  <!-- Text label -->
  <text x="100" y="175" text-anchor="middle" font-family="Arial, sans-serif" font-size="12" fill="#64748b">
    ワイヤレスヘッドホン
  </text>
</svg>