<svg width="200" height="200" viewBox="0 0 200 200" xmlns="http://www.w3.org/2000/svg">
  <!-- Background circle -->
  <circle cx="100" cy="100" r="90" fill="#f8fafc" stroke="#e2e8f0" stroke-width="2"/>
  
  <!-- Keyboard base -->
  <rect x="30" y="80" width="140" height="50" rx="6" fill="#1f2937"/>
  <rect x="32" y="82" width="136" height="46" rx="4" fill="#374151"/>
  
  <!-- Top row keys -->
  <rect x="40" y="90" width="8" height="8" rx="1" fill="#f8fafc" stroke="#e2e8f0" stroke-width="0.5"/>
  <rect x="52" y="90" width="8" height="8" rx="1" fill="#f8fafc" stroke="#e2e8f0" stroke-width="0.5"/>
  <rect x="64" y="90" width="8" height="8" rx="1" fill="#f8fafc" stroke="#e2e8f0" stroke-width="0.5"/>
  <rect x="76" y="90" width="8" height="8" rx="1" fill="#f8fafc" stroke="#e2e8f0" stroke-width="0.5"/>
  <rect x="88" y="90" width="8" height="8" rx="1" fill="#f8fafc" stroke="#e2e8f0" stroke-width="0.5"/>
  <rect x="100" y="90" width="8" height="8" rx="1" fill="#f8fafc" stroke="#e2e8f0" stroke-width="0.5"/>
  <rect x="112" y="90" width="8" height="8" rx="1" fill="#f8fafc" stroke="#e2e8f0" stroke-width="0.5"/>
  <rect x="124" y="90" width="8" height="8" rx="1" fill="#f8fafc" stroke="#e2e8f0" stroke-width="0.5"/>
  <rect x="136" y="90" width="8" height="8" rx="1" fill="#f8fafc" stroke="#e2e8f0" stroke-width="0.5"/>
  <rect x="148" y="90" width="8" height="8" rx="1" fill="#f8fafc" stroke="#e2e8f0" stroke-width="0.5"/>
  
  <!-- Middle row keys -->
  <rect x="40" y="102" width="8" height="8" rx="1" fill="#f8fafc" stroke="#e2e8f0" stroke-width="0.5"/>
  <rect x="52" y="102" width="8" height="8" rx="1" fill="#f8fafc" stroke="#e2e8f0" stroke-width="0.5"/>
  <rect x="64" y="102" width="8" height="8" rx="1" fill="#f8fafc" stroke="#e2e8f0" stroke-width="0.5"/>
  <rect x="76" y="102" width="8" height="8" rx="1" fill="#f8fafc" stroke="#e2e8f0" stroke-width="0.5"/>
  <rect x="88" y="102" width="8" height="8" rx="1" fill="#f8fafc" stroke="#e2e8f0" stroke-width="0.5"/>
  <rect x="100" y="102" width="8" height="8" rx="1" fill="#f8fafc" stroke="#e2e8f0" stroke-width="0.5"/>
  <rect x="112" y="102" width="8" height="8" rx="1" fill="#f8fafc" stroke="#e2e8f0" stroke-width="0.5"/>
  <rect x="124" y="102" width="8" height="8" rx="1" fill="#f8fafc" stroke="#e2e8f0" stroke-width="0.5"/>
  <rect x="136" y="102" width="8" height="8" rx="1" fill="#f8fafc" stroke="#e2e8f0" stroke-width="0.5"/>
  <rect x="148" y="102" width="8" height="8" rx="1" fill="#f8fafc" stroke="#e2e8f0" stroke-width="0.5"/>
  
  <!-- Bottom row keys -->
  <rect x="40" y="114" width="12" height="8" rx="1" fill="#f8fafc" stroke="#e2e8f0" stroke-width="0.5"/>
  <rect x="56" y="114" width="8" height="8" rx="1" fill="#f8fafc" stroke="#e2e8f0" stroke-width="0.5"/>
  <rect x="68" y="114" width="8" height="8" rx="1" fill="#f8fafc" stroke="#e2e8f0" stroke-width="0.5"/>
  <rect x="80" y="114" width="32" height="8" rx="1" fill="#f8fafc" stroke="#e2e8f0" stroke-width="0.5"/>  <!-- Spacebar -->
  <rect x="116" y="114" width="8" height="8" rx="1" fill="#f8fafc" stroke="#e2e8f0" stroke-width="0.5"/>
  <rect x="128" y="114" width="8" height="8" rx="1" fill="#f8fafc" stroke="#e2e8f0" stroke-width="0.5"/>
  <rect x="140" y="114" width="12" height="8" rx="1" fill="#f8fafc" stroke="#e2e8f0" stroke-width="0.5"/>
  
  <!-- Wireless indicator -->
  <circle cx="50" y="70" r="3" fill="#10b981" opacity="0.8"/>
  <path d="M 45 67 Q 50 62 55 67" fill="none" stroke="#10b981" stroke-width="1" opacity="0.6"/>
  <path d="M 42 64 Q 50 57 58 64" fill="none" stroke="#10b981" stroke-width="1" opacity="0.4"/>
  
  <!-- Brand logo area -->
  <rect x="130" y="65" width="20" height="8" rx="2" fill="#6b7280" opacity="0.3"/>
  
  <!-- Function keys indicator -->
  <text x="44" y="96" font-family="Arial, sans-serif" font-size="4" fill="#9ca3af">F1</text>
  <text x="56" y="96" font-family="Arial, sans-serif" font-size="4" fill="#9ca3af">F2</text>
  <text x="68" y="96" font-family="Arial, sans-serif" font-size="4" fill="#9ca3af">F3</text>
  
  <!-- Some letter keys -->
  <text x="44" y="108" font-family="Arial, sans-serif" font-size="4" fill="#9ca3af">Q</text>
  <text x="56" y="108" font-family="Arial, sans-serif" font-size="4" fill="#9ca3af">W</text>
  <text x="68" y="108" font-family="Arial, sans-serif" font-size="4" fill="#9ca3af">E</text>
  <text x="80" y="108" font-family="Arial, sans-serif" font-size="4" fill="#9ca3af">R</text>
  
  <!-- Feet/stands -->
  <rect x="40" y="128" width="6" height="2" rx="1" fill="#6b7280"/>
  <rect x="154" y="128" width="6" height="2" rx="1" fill="#6b7280"/>
  
  <!-- Text label -->
  <text x="100" y="175" text-anchor="middle" font-family="Arial, sans-serif" font-size="12" fill="#64748b">
    ワイヤレスキーボード
  </text>
</svg>